<svg xmlns="http://www.w3.org/2000/svg" viewBox="0 0 32 32">
  <rect width="32" height="32" fill="#0a0e1a"/>
  <rect x="4" y="4" width="4" height="4" fill="#ffd700"/>
  <rect x="8" y="4" width="4" height="4" fill="#ffd700"/>
  <rect x="12" y="4" width="4" height="4" fill="#ffd700"/>
  <rect x="4" y="8" width="4" height="4" fill="#ffd700"/>
  <rect x="8" y="8" width="4" height="4" fill="#0a0e1a"/>
  <rect x="12" y="8" width="4" height="4" fill="#ffd700"/>
  <rect x="4" y="12" width="4" height="4" fill="#ffd700"/>
  <rect x="8" y="12" width="4" height="4" fill="#ffd700"/>
  <rect x="12" y="12" width="4" height="4" fill="#ffd700"/>
  <rect x="4" y="16" width="4" height="4" fill="#ffd700"/>
  <rect x="4" y="20" width="4" height="4" fill="#ffd700"/>
  <rect x="8" y="20" width="4" height="4" fill="#ffd700"/>
  <rect x="12" y="20" width="4" height="4" fill="#ffd700"/>
  <rect x="18" y="6" width="4" height="4" fill="#00e676"/>
  <rect x="22" y="10" width="4" height="4" fill="#00e676"/>
  <rect x="18" y="14" width="4" height="4" fill="#ff1744"/>
  <rect x="22" y="18" width="4" height="4" fill="#00e676"/>
  <rect x="26" y="14" width="4" height="4" fill="#00e676"/>
</svg>
